<?xml version="1.0" ?><!DOCTYPE svg  PUBLIC '-//W3C//DTD SVG 1.1//EN'  'http://www.w3.org/Graphics/SVG/1.1/DTD/svg11.dtd'><svg enable-background="new 0 0 512 512" height="512px" id="Calque_1" version="1.1" viewBox="0 0 512 512" width="512px" xml:space="preserve" xmlns="http://www.w3.org/2000/svg" xmlns:xlink="http://www.w3.org/1999/xlink"><path d="  M272.866,352.987c-9.276,0-24.458,0-33.734,0H123.385c-9.277,0-13.072-6.573-8.434-14.607l57.874-100.241  c4.638-8.034,12.229-21.182,16.867-29.216l57.874-100.241c4.639-8.034,12.229-8.034,16.867,0l57.874,100.241  c4.639,8.034,12.229,21.181,16.868,29.216l57.873,100.241c4.639,8.034,0.844,14.607-8.434,14.607H272.866z" fill="none" stroke="#000000" stroke-linecap="round" stroke-linejoin="round" stroke-miterlimit="10" stroke-width="7"/><g><line fill="none" stroke="#000000" stroke-dasharray="32.713,20.4457,1.0223,0,3.0669,32.7131" stroke-linecap="round" stroke-linejoin="round" stroke-miterlimit="10" stroke-width="7" x1="256" x2="256" y1="164.99" y2="275.471"/><circle cx="256" cy="309.206" fill="none" r="15.603" stroke="#000000" stroke-linecap="round" stroke-linejoin="round" stroke-miterlimit="10" stroke-width="7"/></g><g><circle cx="256.001" cy="256" fill="none" r="218.662" stroke="#010101" stroke-dasharray="32.7131,20.4457,1.0223,0,3.0669,32.7131" stroke-linecap="round" stroke-linejoin="round" stroke-width="7"/></g></svg>